<svg xmlns="http://www.w3.org/2000/svg" width="531.538" height="700" viewBox="0 0 531.538 700">
  <g id="john-warnock" transform="translate(0 0.003)">
    <path id="Path_357357" data-name="Path 357357" d="M272.7,549.685c.913-.365,4.461-1.835,5.861-1.835a31.116,31.116,0,0,1,.608,6.591h.061c2.991-5.556,6.895-6.591,8.73-6.591a3.928,3.928,0,0,1,2.2.548,21.3,21.3,0,0,1-1.47,5.86l-.243.243a14.65,14.65,0,0,1-1.957-4.208,2.258,2.258,0,0,0-.852-.122c-2.322,0-4.522,2.444-6.347,6.53v16.3l5.617,1.835v.243c-1.156-.061-4.279-.182-8.182-.182-1.531,0-4.461.122-5.252.182v-.243l3.539-1.9c.487-10.008.487-17.521.487-21l-3.052-2.018.243-.243Z" transform="translate(3.782 7.632)" fill="#010101"/>
    <path id="Path_357358" data-name="Path 357358" d="M236.623,549.929l-3.052,2.018c0,3.478,0,10.991.487,21l3.539,1.9v.243c-.791-.061-3.721-.182-5.252-.182-3.9,0-7.016.122-8.182.182v-.243l5.617-1.835V556.7c-1.835-4.086-4.025-6.53-6.347-6.53a2.254,2.254,0,0,0-.852.122,13.991,13.991,0,0,1-1.957,4.208l-.243-.243a21.684,21.684,0,0,1-1.47-5.861,3.9,3.9,0,0,1,2.2-.548c1.835,0,5.739,1.034,8.73,6.591h.061a31.119,31.119,0,0,1,.608-6.591c1.4,0,4.948,1.47,5.861,1.835l.243.243Z" transform="translate(3.049 7.632)" fill="#010101"/>
    <path id="Path_357359" data-name="Path 357359" d="M293.166,684.047c-1.44.578-6.986,2.869-9.186,2.869-.477-1.338-.953-6.408-.953-10.332h-.091c-4.684,8.71-10.809,10.332-13.688,10.332a6.092,6.092,0,0,1-3.447-.862,33.784,33.784,0,0,1,2.292-9.186l.385-.385a22.569,22.569,0,0,1,3.062,6.6,3.637,3.637,0,0,0,1.338.193c3.64,0,7.077-3.833,9.957-10.241V647.485l-8.8-2.869v-.385c1.815.091,6.7.284,12.826.284,2.393,0,6.986-.193,8.233-.284v.385l-5.546,2.971c-.76,15.7-.76,27.467-.76,32.922l4.786,3.153-.385.385Z" transform="translate(3.703 8.974)" fill="#010101"/>
    <path id="Path_357360" data-name="Path 357360" d="M212.731,683.662l4.786-3.153c0-5.455,0-17.227-.76-32.922l-5.546-2.971v-.385c1.247.091,5.84.284,8.233.284,6.124,0,11-.193,12.826-.284v.385l-8.8,2.869v25.551c2.869,6.408,6.317,10.241,9.957,10.241a3.427,3.427,0,0,0,1.338-.193,22.572,22.572,0,0,1,3.062-6.6l.385.385a33.4,33.4,0,0,1,2.291,9.186,6.091,6.091,0,0,1-3.447.862c-2.869,0-8.994-1.622-13.688-10.332h-.091c0,3.924-.477,8.994-.953,10.332-2.2,0-7.746-2.291-9.186-2.869l-.385-.385Z" transform="translate(2.942 8.974)" fill="#010101"/>
    <path id="Path_357361" data-name="Path 357361" d="M242.917,292.842l3.356,5.08c5.79,0,18.281,0,34.94-.811l3.153-5.891h.406c-.1,1.318-.3,6.2-.3,8.74,0,6.5.2,11.681.3,13.607h-.406l-3.052-9.348H254.192c-6.8,3.052-10.869,6.7-10.869,10.565a3.761,3.761,0,0,0,.2,1.419,23.541,23.541,0,0,1,7.006,3.255l-.406.406a35.817,35.817,0,0,1-9.754,2.433,6.5,6.5,0,0,1-.913-3.66c0-3.052,1.724-9.551,10.971-14.53v-.1c-4.167,0-9.551-.507-10.971-1.014,0-2.332,2.433-8.233,3.052-9.754l.406-.406Z" transform="translate(3.336 4.057)" fill="#010101"/>
    <path id="Path_357362" data-name="Path 357362" d="M205.435,339.775l-3.356-5.08c-5.79,0-18.281,0-34.94.811l-3.153,5.891h-.406c.1-1.318.3-6.2.3-8.74,0-6.5-.2-7.787-.3-9.713h.406l3.052,5.445H194.16c6.8-3.052,10.869-6.7,10.869-10.565a3.761,3.761,0,0,0-.2-1.419,23.542,23.542,0,0,1-7.006-3.255l.406-.406a35.818,35.818,0,0,1,9.754-2.433,6.5,6.5,0,0,1,.913,3.66c0,3.052-1.724,9.551-10.971,14.53v.1c4.167,0,9.551.507,10.971,1.014,0,2.332-2.433,8.233-3.052,9.754l-.406.406Z" transform="translate(2.279 4.323)" fill="#010101"/>
    <path id="Path_357363" data-name="Path 357363" d="M172.269,126.305c-1.967-.527-9.642-2.5-11.975-4.259.558-1.795,4.076-7.523,7.189-11.66l-.1-.071c-11.853,5.475-19.609,2.332-22.631.051a8.112,8.112,0,0,1-2.951-3.64,44.246,44.246,0,0,1,9.7-7.868l.71-.1c.071,1.795-.537,5.13-2.008,9.4a4.765,4.765,0,0,0,1.257,1.267c3.833,2.88,10.5,1.572,18.616-2.91l20.258-26.96L183.32,69.546l.3-.406c1.845,1.541,6.844,5.617,13.3,10.474,2.525,1.9,7.523,5.333,8.912,6.226l-.3.406-8.213-1.267c-13.252,15.949-22.58,28.37-26.91,34.129l2.545,7.128-.71.1Z" transform="translate(1.975 0.963)" fill="#010101"/>
    <path id="Path_357364" data-name="Path 357364" d="M507.715,346.53l-6.966-3.721c-.963-19.711-.963-34.494-.963-41.338l6.013-3.964-.477-.476c-1.8-.72-8.77-3.61-11.539-3.61-.6,1.683-1.207,8.051-1.207,12.978h-.122c-5.891-10.94-13.576-12.978-17.186-12.978a7.711,7.711,0,0,0-4.329,1.085,42.531,42.531,0,0,0,2.88,11.539l.477.477c1.085-1.318,2.525-4.208,3.843-8.294a4.422,4.422,0,0,1,1.683-.243c4.563,0,8.892,4.806,12.5,12.857V342.93l-11.052,3.61v.375h0v.477L492.324,351v32.091c-3.61,8.051-7.929,12.857-12.5,12.857a4.423,4.423,0,0,1-1.683-.243,28.513,28.513,0,0,0-3.843-8.294l-.477.477a42.145,42.145,0,0,0-2.88,11.539,7.711,7.711,0,0,0,4.329,1.085c3.61,0,11.3-2.048,17.186-12.978h.122c0,4.928.6,11.3,1.207,12.978,2.768,0,9.734-2.88,11.539-3.61l.477-.477-6.013-3.964c0-6.854,0-21.627.963-41.338l6.966-3.721v-.375h0v-.476Z" transform="translate(6.56 4.087)" fill="#010101"/>
    <path id="Path_357365" data-name="Path 357365" d="M136.8,44.9l-4.776,2.028c-.193,5.79.051,16.466.233,34.514l.294.1c6.915-8.365,13-15.25,18.95-22.388l1.521-6.114a21.021,21.021,0,0,1,5.79-1.125l.324.335-1.592,7.635c-.1,7.473.811,17.49,1.409,30.063l.2.071c6.986-9.227,12.715-17,20.329-27.447l-3.883-4.512.436-.294c2.342.9,4.36,1.8,6.732,2.616s5.019,1.48,7.331,2.15l-.233.365c-2.312.314-4.664.74-7.118,1.125-1.663,1.643-14.4,17.754-25.744,32.679-1.227,1.014-2.819,2.139-3.883,2.991l-.4-.132c-.416-10.19-1.156-27.548-1.643-35.548l-.1-.03c-8.111,9.288-11.863,13.2-20.41,23.442a47.031,47.031,0,0,1-4.086,3.255L126,90.5c.051-10.91-.324-42.717-.669-45.931-1.318-1.663-2.626-3.316-4.076-4.918l.436-.294c2.636,1,5.343,2.139,8.122,3.082,2.474.842,4.725,1.379,7.229,2.119l-.233.365Z" transform="translate(1.689 0.548)" fill="#010101"/>
    <path id="Path_357366" data-name="Path 357366" d="M334.944,339.782c-1.257-3.883-2.88-11.893-2.88-14.9h49.095a45.776,45.776,0,0,1,20.786,5.384c10.9,5.637,15.777,10.271,18.16,12.776l-1.125,1.632-.5.253c-10.018-10.768-18.413-12.4-38.327-12.4-12.654,0-31.685,0-41.449.629-1.125,2.251-2.251,4.512-3.255,6.885l-.5-.253Zm-28.684-11.65c.5-1.247,3.255-3.63,5.009-4.512l.872.253a16.941,16.941,0,0,1,5.009,4.887l.375.75a20.183,20.183,0,0,1-5.262,4.512l-.75-.254a19.255,19.255,0,0,1-5.131-4.887Z" transform="translate(4.266 4.508)" fill="#010101"/>
    <path id="Path_357367" data-name="Path 357367" d="M281.552,386.984c-3.883,1.257-11.893,2.88-14.9,2.88V340.769a45.777,45.777,0,0,1,5.384-20.786c5.637-10.9,11.194-16.608,13.7-18.991l1.207-.162-.477,2.423c-10.768,10.018-12.177,18.606-12.177,38.519,0,12.654,0,31.685.629,41.449,2.251,1.125,4.512,2.251,6.885,3.255l-.253.5ZM269.9,415.668c-1.247-.5-3.63-3.255-4.512-5.009l.253-.872a16.942,16.942,0,0,1,4.887-5.009l.75-.375a20.185,20.185,0,0,1,4.512,5.262l-.254.75a19.255,19.255,0,0,1-4.887,5.131Z" transform="translate(3.697 4.191)" fill="#010101"/>
    <path id="Path_357368" data-name="Path 357368" d="M319.537,433.934c2-3.893,6.844-11.194,9.125-13.465l37.171,37.252a49.162,49.162,0,0,1,11.65,19.853c3.975,12.532,4.157,19.751,4.056,23.452l-2.089.375-.568-.193c.588-15.757-4.532-23.351-19.609-38.469-9.571-9.6-23.99-24.04-31.858-30.976-2.565.852-5.13,1.7-7.7,2.748l-.193-.568Zm-12.877-30.58c1.328-.568,5.222-.274,7.209.385l.477.852a18.188,18.188,0,0,1,.091,7.5l-.284.852a21.351,21.351,0,0,1-7.4-.578l-.375-.76a20.637,20.637,0,0,1-.183-7.594l.477-.669Z" transform="translate(4.262 5.615)" fill="#010101"/>
    <path id="Path_357369" data-name="Path 357369" d="M68.294,349h0l-.233-.466-6.732-3.843c-.477-1.561-.6-14.063-.6-29.566V302.984l6.246-3-.243-.6c-1.926-.6-9.49-3.721-13.455-3.964l.477,10.332h-.243c-9.734-8.416-13.942-10.332-19.224-10.332-10.819,0-15.138,9.49-15.138,17.308v29.688c0,1.8-.243,2.281-1.318,2.768L10.5,348.55v.943l7.331,3.366c1.085.477,1.318.963,1.318,2.768v29.688c0,7.807,4.329,17.308,15.138,17.308,5.293,0,9.49-1.926,19.224-10.332h.243l-.477,10.332c3.964-.243,11.539-3.366,13.455-3.964l.243-.6-6.246-3V382.922c0-15.5.122-28,.6-29.566l6.732-3.843.233-.466h0Zm-29.2,48.425c-5.891,0-12.38-3.488-12.38-14.54,0-14.9.365-24.517.842-29.445l3.488-3.964.233-.466h0v-.02h0l-.233-.466-3.488-3.965c-.477-4.928-.842-14.54-.842-29.444,0-11.052,6.489-14.54,12.38-14.54,6.854,0,12.38,5.648,14.185,7.807,0,9.136,0,34.372-.6,36.177l-6.367,3.965v.943l6.367,3.964c.6,1.8.6,27.042.6,36.177-1.8,2.16-7.331,7.807-14.185,7.807Z" transform="translate(0.146 4.115)" fill="#010101"/>
    <path id="Path_357370" data-name="Path 357370" d="M202.628,341.788l-.03.314c-.639.152-1.044.406-2.352,1.531-1.521,1.349-19.194,17.46-21.333,19.549,0,1.511,0,2.951-.041,4.482l-.2-.02c-.466-1.318-1.1-3.174-1.612-4.482-.578-1.48-1.227-2.869-1.8-4.208l.193-.02,2,1.267c1.359-1.136,4.309-3.944,8.75-7.949a93.668,93.668,0,0,1-3.985-9.511c-5.84-.061-8.314,0-11.346.2l.041,4.441-.213-.02c-.4-1.146-1.237-3.528-1.835-5.039-.548-1.389-1.166-2.7-1.714-3.985l.172-.071,2.646,2.525c3.995.335,16.933.618,27.883.568a1.384,1.384,0,0,0,.994-.4l.821-.72,2.961,1.541Zm-5.475.6c-3.63.071-8.841.071-13.283.254.406,1.044,2.484,6.844,3.255,8.791,3.6-3.214,6.783-6.073,10.058-8.963l-.03-.091Z" transform="translate(2.328 4.712)" fill="#010101"/>
    <path id="Path_357371" data-name="Path 357371" d="M238.169,544.47c1.43.051,3.782.152,5.566.152,2.555,0,3.376-.1,4.086-.152l-.152.254-2.15,1.632v12.927h19.163V546.356l-2.3-1.734.2-.152c1.227.051,2.606.152,3.883.152,2.606,0,4.654-.1,6.033-.152l-.051.253-4.39,1.632v14.459c0,5.779.152,14.925.406,15.483l4.553,1.886-.152.2c-1.582-.051-4.441-.152-6.743-.152-1.734,0-2.859.1-3.478.152l.152-.253,1.835-1.734c.152-5.719.051-10.575.051-16a35.388,35.388,0,0,1-6.641.507H245.52c0,4.6-.2,9.3.051,15.178l1.734,2.1-.051.2c-.771-.051-2.048-.152-3.934-.152s-4.39.1-5.779.152l.2-.2,4.137-1.734c.051-1.328.3-9.713.3-16V546.244l-4.137-1.582.1-.2Z" transform="translate(3.309 7.585)" fill="#010101"/>
    <path id="Path_357372" data-name="Path 357372" d="M218.509,418.85a9.851,9.851,0,0,1,2.768-1.582l.152.1a33.844,33.844,0,0,1-1.825,7.118l-.2.152a19.017,19.017,0,0,1-1.237-4.938c-1.774-1.237-4.8-1.734-7.463-1.734-10.129,0-15.462,7.168-15.462,16.01,0,7.807,5.141,15.513,16.405,15.513a10.2,10.2,0,0,0,3.66-.5c1.379-1.43,4.147-4.35,5.242-5.242l.243.152a29.419,29.419,0,0,1-2.423,5.485,30.068,30.068,0,0,1-8.75,1.632c-9.044,0-17.987-5.435-17.987-16.9S202,416.63,209.759,416.63C213.511,416.63,216.573,417.421,218.509,418.85Z" transform="translate(2.669 5.804)" fill="#010101"/>
    <path id="Path_357373" data-name="Path 357373" d="M292.35,416.63c7.757,0,18.129,5.587,18.129,17.49,0,11.468-8.943,16.9-17.987,16.9a30.13,30.13,0,0,1-8.75-1.632,29.417,29.417,0,0,1-2.423-5.485l.243-.152c1.085.892,3.853,3.8,5.242,5.242a10.2,10.2,0,0,0,3.66.5c11.265,0,16.405-7.706,16.405-15.513,0-8.841-5.333-16.01-15.462-16.01-2.667,0-5.678.5-7.463,1.734a18.909,18.909,0,0,1-1.237,4.938l-.2-.152a33.07,33.07,0,0,1-1.825-7.118l.152-.1a9.849,9.849,0,0,1,2.768,1.582C285.527,417.421,288.589,416.63,292.35,416.63Z" transform="translate(3.91 5.804)" fill="#010101"/>
    <path id="Path_357374" data-name="Path 357374" d="M215.536,303.177,211,290.473c-2.778-.142-12.857-.294-36.664-.436-21.475,0-26.727-.142-30.823-.142-19.863-.436-36.664.872-47.614,14.459H95.03l-.73-2.626c3.508-3.944,13.141-15.189,35.052-20.3a40.294,40.294,0,0,1,9.49-1.024c11.833,0,56.821-.294,72.151,0l4.532-10.667.73-.588c-.142,4.968-.436,11.1-.436,16.213,0,7.3.294,11.244.436,17.237l-.73.588Z" transform="translate(1.314 3.749)" fill="#010101"/>
    <path id="Path_357375" data-name="Path 357375" d="M369.982,502.02h-.831c-10.443,12.948-26.453,14.205-45.384,13.779-3.893,0-8.912-.142-29.374-.142-22.692-.142-32.294-.274-34.94-.416l-4.319-12.116h-1.186l-4.319,12.116c-2.646.142-12.248.274-34.94.416-20.461,0-25.48.142-29.374.142-18.93.416-34.94-.831-45.384-13.779H139.1l-.7,2.5c3.346,3.762,12.532,14.479,33.409,19.356a38.174,38.174,0,0,0,9.044.973c11.275,0,54.154.274,68.775,0l4.319,10.16.5.4c.061.04.132.071.193,0l.5-.4,4.319-10.16c14.621.274,57.5,0,68.775,0a38.117,38.117,0,0,0,9.044-.973c20.887-4.877,30.073-15.594,33.409-19.356l-.7-2.5Z" transform="translate(1.928 6.993)" fill="#010101"/>
    <path id="Path_357376" data-name="Path 357376" d="M444.4,288.31c5.313.132,8.811.385,15.28.385,4.532,0,9.977-.264,14.378-.385l-.517.649-9.45,4.015c.264,13.6,0,73.51,0,83.994a36.114,36.114,0,0,1-.9,8.416c-4.532,19.427-14.236,28.41-17.734,31.513l-2.332-.649v-.781c12.046-9.713,12.948-25.044,12.552-42.656,0-3.63-.132-8.284-.132-27.325-.132-21.11-.264-50.068-.385-52.532l-11.265-4.015.517-.649Z" transform="translate(6.173 4.016)" fill="#010101"/>
    <path id="Path_357377" data-name="Path 357377" d="M447.367,413.819l.02-.75-2.352-.659c-3.539,3.143-13.607,11.782-18.19,31.412a36.351,36.351,0,0,0-.913,8.507c0,10.6-.264,50.909,0,64.648l-9.774,4.056-.983,1.207,11.386,4.056c.132,2.484.264,11.518.4,32.851,0,19.234.132,23.949.132,27.619.4,17.795-.781,32.852-12.958,42.666v.781l2.352.659c3.539-3.143,13.607-11.782,18.19-31.412a36.353,36.353,0,0,0,.913-8.507c0-10.6.264-50.91,0-64.648l9.795-4.056.963-1.207-11.386-4.056c-.132-2.484-.264-11.518-.4-32.851,0-19.234-.132-23.949-.132-27.619-.365-16.689.618-30.864,10.768-40.669.679-.659,1.409-1.419,2.17-2.028Z" transform="translate(5.769 5.745)" fill="#010101"/>
    <path id="Path_357378" data-name="Path 357378" d="M473.536,398.8l-.578-.172-1.622-.75c-3.153,2.809-12.634,10.677-16.73,28.208a32,32,0,0,0-.821,7.594c0,9.46-.233,45.455,0,57.723l-8.73,3.62-.872,1.075,10.17,3.62c.122,2.22.233,10.281.355,29.333,0,17.176.122,21.384.122,24.659.355,15.888-.7,29.333-11.569,38.093v.7l2.1.588c3.153-2.809,12.157-10.515,16.243-28.045a32.009,32.009,0,0,0,.821-7.594c0-9.46.233-45.455,0-57.723l8.74-3.62.862-1.075-10.17-3.62c-.122-2.22-.233-10.281-.355-29.333,0-17.176-.122-21.384-.122-24.659-.355-15.888,1.278-29.85,12.147-38.621Z" transform="translate(6.175 5.543)" fill="#010101"/>
    <path id="Path_357379" data-name="Path 357379" d="M386.135,529.34c6.144.152,10.19.446,17.683.446,5.242,0,11.539-.3,16.639-.446l-.6.75-10.94,4.644c.3,15.736,0,61.9,0,74.047a41.794,41.794,0,0,1-1.044,9.744C402.631,641,391.083,650.9,387.037,654.5l-2.7-.75v-.9c13.942-11.245,15.29-28.481,14.834-48.861,0-4.2-.152-9.592-.152-31.625-.152-24.436-.3-34.768-.446-37.617L385.537,530.1l.6-.75Z" transform="translate(5.354 7.374)" fill="#010101"/>
    <path id="Path_357380" data-name="Path 357380" d="M363.392,554.32c5.6.132,9.288.406,16.121.406,4.776,0,10.514-.274,15.158-.406l-.548.679-9.967,4.238c.274,14.347,0,56.415,0,67.477a37.928,37.928,0,0,1-.953,8.882c-4.786,20.492-15.3,29.505-18.991,32.78l-2.454-.679v-.821c12.7-10.241,13.931-25.957,13.526-44.532,0-3.823-.132-8.74-.132-28.826-.132-22.266-.274-31.685-.406-34.281L362.865,555l.548-.679Z" transform="translate(5.04 7.722)" fill="#010101"/>
    <path id="Path_357381" data-name="Path 357381" d="M342.411,569.38c5.242.132,8.7.385,15.1.385,4.482,0,9.855-.253,14.205-.385l-.517.639-9.338,3.964c.253,13.435,0,52.846,0,63.208a35.253,35.253,0,0,1-.892,8.314c-4.482,19.194-14.327,27.64-17.784,30.712l-2.3-.639v-.771c11.9-9.6,13.049-24.314,12.664-41.713,0-3.579-.132-8.193-.132-27-.132-20.857-.253-29.688-.385-32.111l-11.133-3.964Z" transform="translate(4.749 7.932)" fill="#010101"/>
    <path id="Path_357382" data-name="Path 357382" d="M316,570.75c5.566.132,9.227.406,16.02.406,4.755,0,10.454-.274,15.067-.406l-.548.679-9.906,4.208c.274,14.256,0,56.07,0,67.061a37.354,37.354,0,0,1-.953,8.821c-4.755,20.36-15.209,29.323-18.869,32.578l-2.444-.679v-.811c12.623-10.18,13.85-25.794,13.435-44.258,0-3.8-.132-8.689-.132-28.643-.132-22.124-.274-31.493-.406-34.078l-11.812-4.208.548-.679Z" transform="translate(4.379 7.951)" fill="#010101"/>
    <path id="Path_357383" data-name="Path 357383" d="M295.479,588.16c4.836.122,8.03.355,13.931.355,4.127,0,9.085-.233,13.1-.355l-.477.588-8.618,3.66c.233,12.39,0,48.75,0,58.311a32.7,32.7,0,0,1-.821,7.675c-4.137,17.7-13.222,25.5-16.405,28.329l-2.129-.588v-.71c10.981-8.852,12.035-22.428,11.691-38.479,0-3.305-.122-7.554-.122-24.912-.122-19.244-.233-27.386-.355-29.627L295,588.748Z" transform="translate(4.096 8.193)" fill="#010101"/>
    <path id="Path_357384" data-name="Path 357384" d="M211.618,591.068l-10.271,3.66c-.122,2.241-.233,10.383-.355,29.627,0,17.348-.122,21.607-.122,24.912-.355,16.051.71,29.627,11.691,38.479v.71l-2.129.588c-3.184-2.829-12.279-10.626-16.405-28.329a32.633,32.633,0,0,1-.821-7.675c0-9.561-.233-45.921,0-58.311l-8.618-3.66-.477-.588c4.015.122,8.973.355,13.1.355,5.9,0,9.085-.233,13.931-.355l.477.588Z" transform="translate(2.565 8.226)" fill="#010101"/>
    <path id="Path_357385" data-name="Path 357385" d="M64.51,399.147c10.16,9.815,11.133,23.99,10.768,40.669,0,3.66-.132,8.375-.132,27.619-.132,21.333-.264,40.111-.4,42.605L63.364,514.1l.963,1.207,9.795,4.056c-.264,13.739,0,61.231,0,71.837a36.355,36.355,0,0,0,.913,8.507c4.583,19.63,14.661,28.268,18.19,31.411l2.352-.659v-.781C83.41,619.859,82.223,604.8,82.619,587.008c0-3.66.132-8.375.132-27.62.132-21.333.264-37.546.4-40.03L94.533,515.3l-.984-1.207-9.774-4.056c.264-13.739,0-63.807,0-74.4a36.353,36.353,0,0,0-.913-8.507C78.279,407.5,68.2,398.863,64.672,395.72l-2.352.659.02.75c.76.618,1.49,1.379,2.17,2.028Z" transform="translate(0.868 5.513)" fill="#010101"/>
    <path id="Path_357386" data-name="Path 357386" d="M48.277,437.423c0,3.275-.122,7.483-.122,24.659-.122,19.052-.233,27.112-.355,29.333l-10.17,3.62.862,1.075,8.74,3.62c-.233,12.269,0,48.263,0,57.723a31.947,31.947,0,0,0,.821,7.594c4.086,17.531,13.09,25.247,16.243,28.045l2.1-.588v-.7c-10.869-8.76-11.924-22.205-11.569-38.093,0-3.275.122-7.483.122-24.659.122-19.052.233-27.112.355-29.333l10.17-3.62-.872-1.075-8.73-3.62c.233-12.269,0-48.263,0-57.723a31.945,31.945,0,0,0-.821-7.594c-4.086-17.531-13.566-25.409-16.73-28.208l-1.622.75-.578.172c10.869,8.76,12.5,22.732,12.147,38.621Z" transform="translate(0.503 5.543)" fill="#010101"/>
    <path id="Path_357387" data-name="Path 357387" d="M124.21,530.091l-13.039,4.644c-.152,2.849-.3,13.191-.446,37.617,0,22.033-.152,27.427-.152,31.624-.446,20.38.9,37.617,14.834,48.861v.9l-2.7.75c-4.046-3.6-15.584-13.485-20.836-35.974a41.256,41.256,0,0,1-1.044-9.744c0-12.137-.3-58.3,0-74.047l-10.94-4.644-.6-.75c5.1.152,11.386.446,16.639.446,7.493,0,11.539-.3,17.683-.446l.6.75Z" transform="translate(1.244 7.374)" fill="#010101"/>
    <path id="Path_357388" data-name="Path 357388" d="M146.857,555.009l-11.883,4.238c-.132,2.6-.274,12.015-.406,34.281,0,20.076-.132,24.993-.132,28.826-.406,18.575.821,34.281,13.526,44.532v.821l-2.454.679c-3.691-3.275-14.205-12.289-18.991-32.78a37.812,37.812,0,0,1-.953-8.882c0-11.062-.274-53.13,0-67.477l-9.967-4.238-.548-.679c4.644.132,10.383.406,15.158.406,6.834,0,10.514-.274,16.121-.406l.548.679Z" transform="translate(1.603 7.722)" fill="#010101"/>
    <path id="Path_357389" data-name="Path 357389" d="M167.78,570.019l-11.133,3.964c-.132,2.433-.253,11.265-.385,32.111,0,18.808-.132,23.412-.132,27-.385,17.4.771,32.111,12.664,41.713v.771l-2.3.639c-3.458-3.072-13.3-11.518-17.784-30.712a35.313,35.313,0,0,1-.892-8.314c0-10.362-.254-49.774,0-63.208l-9.338-3.964-.517-.639c4.35.132,9.724.385,14.205.385,6.4,0,9.855-.253,15.1-.385l.517.639Z" transform="translate(1.922 7.932)" fill="#010101"/>
    <path id="Path_357390" data-name="Path 357390" d="M194.235,571.429l-11.812,4.208c-.132,2.575-.274,11.944-.406,34.078,0,19.954-.132,24.841-.132,28.644-.406,18.464.811,34.078,13.435,44.258v.811l-2.444.679c-3.67-3.255-14.114-12.218-18.869-32.578a37.411,37.411,0,0,1-.953-8.821c0-10.991-.274-52.805,0-67.061l-9.906-4.208-.548-.679c4.613.132,10.322.406,15.067.406,6.783,0,10.454-.274,16.02-.406l.547.679Z" transform="translate(2.265 7.951)" fill="#010101"/>
    <path id="Path_357391" data-name="Path 357391" d="M299.91,14.692l-1.43,1.714c-17.936-8.74-46.874-14.094-85.849-3.437-39.148,10.707-60.816,29.9-71.452,46.448l-2.1-.75c13.8-29.931,46.114-46.915,71.33-53.809,24.862-6.8,62.032-8.811,89.489,9.835Z" transform="translate(1.937 0)" fill="#010101"/>
    <path id="Path_357392" data-name="Path 357392" d="M332.613,34.474l-1.43,1.46c-15.726-9.308-41.764-16.334-78.144-9.49-36.542,6.885-57.743,22.8-68.684,37.13l-1.866-.842C197.3,36.421,228.076,23.3,251.61,18.87,274.819,14.5,308.907,15.412,332.613,34.474Z" transform="translate(2.542 0.233)" fill="#010101"/>
    <path id="Path_357393" data-name="Path 357393" d="M369.419,69.868l-1.105.953c-10.585-7.6-28.644-14.236-54.914-11.66-26.393,2.586-42.453,12.563-51.122,22.063l-1.267-.72C273.187,62.75,295.869,55.359,312.873,53.7c16.76-1.643,40.922,1.146,56.557,16.172Z" transform="translate(3.636 0.742)" fill="#010101"/>
    <path id="Path_357394" data-name="Path 357394" d="M201.323,645.494c3.8-1.125,8.426-2.565,11.407-3.5a5.86,5.86,0,0,0,2.667-1.744c5.242-4.725,10.372-10.17,21.881-23.016v-.3c-8.426-10.373-16.03-18.8-23.533-26.92-7.5-8.223-10.484-10.991-12.228-13.049l.1-.2c10.372.416,14.793,3.9,20.137,9.247,5.141,5.242,14.073,15.108,22.813,25.683v.821c-15.31,16.649-21.881,24.456-25.683,30a14.875,14.875,0,0,1,.2,3.7,178.407,178.407,0,0,1-17.977-.3l.2-.406Z" transform="translate(2.802 8.035)" fill="#010101"/>
    <path id="Path_357395" data-name="Path 357395" d="M305.707,645.9a178.421,178.421,0,0,1-17.977.3,15.431,15.431,0,0,1,.2-3.7c-3.8-5.546-10.373-13.354-25.683-30v-.821c8.73-10.585,17.673-20.441,22.813-25.683,5.343-5.343,9.764-8.831,20.137-9.247l.1.2c-1.744,2.058-4.725,4.826-12.228,13.049-7.5,8.122-15.108,16.537-23.533,26.92v.3c11.508,12.847,16.649,18.291,21.881,23.016a5.859,5.859,0,0,0,2.667,1.744c2.981.923,7.6,2.362,11.407,3.5l.2.405Z" transform="translate(3.653 8.034)" fill="#010101"/>
    <path id="Path_357396" data-name="Path 357396" d="M240.242,577.56c4.806.122,9.257.365,13.942.365s9.014-.243,13.577-.365l-.243.6-9.734,4.086v33.531c0,19.954.355,65.277.6,67.325l11.052,3.964-.122.477c-2.768-.122-7.807-.365-15.381-.365-6.368,0-12.623.243-15.26.365l.122-.477,10.454-3.964c.477-1.927.72-47.371.72-67.325V582l-9.977-3.964.243-.477Z" transform="translate(3.325 8.046)" fill="#010101"/>
    <path id="Path_357397" data-name="Path 357397" d="M431.251,113.474l-2.241-.142c-3.488-19.8-16.263-46.58-48.03-72.06s-60.39-31.9-80.192-30.773l-.629-2.16c32.588-6.459,65.571,9.835,86.123,26.322,20.268,16.253,43.913,45.373,44.968,78.813Z" transform="translate(4.181 0.096)" fill="#010101"/>
    <path id="Path_357398" data-name="Path 357398" d="M396.812,77.693,394.6,79.1c-16.963-16.213-47.482-32.557-94.955-34.565-47.685-2.008-78.833,11.741-96.668,26.484L200.89,69.43c26.17-28.593,68.45-36.066,99.172-34.768,30.286,1.278,72.648,12.319,96.749,43.031Z" transform="translate(2.798 0.481)" fill="#010101"/>
    <path id="Path_357399" data-name="Path 357399" d="M392.519,76.84l1.561.406c-.193,14.428,5.222,35.021,24.213,57.247,19.072,22.327,38.316,30.58,52.43,32.446l.152,1.6c-23.837.193-44.917-15.716-57.206-30.093-12.117-14.175-24.892-37.88-21.151-61.606Z" transform="translate(5.459 1.07)" fill="#010101"/>
    <path id="Path_357400" data-name="Path 357400" d="M13.37,143.345l1.014-1.673c16.649,5.232,42.392,6.1,74.737-8.182,32.486-14.347,48.74-33.774,55.8-49.48l1.916.375c-8.051,27.69-33.815,46.59-54.732,55.837-20.633,9.115-52.532,15.686-78.722,3.123Z" transform="translate(0.186 1.17)" fill="#010101"/>
    <path id="Path_357401" data-name="Path 357401" d="M121.317,95.013l-.537,2.058c-19.021-.345-46.195,6.682-75.589,31.574-29.536,25-40.537,50.311-43.072,68.907L0,197.744c-.112-31.422,20.978-59.112,40-75.213,18.758-15.878,50.068-32.578,81.317-27.518Z" transform="translate(0 1.311)" fill="#010101"/>
    <path id="Path_357402" data-name="Path 357402" d="M75.362,151.35l-.172,1.46C62.14,154.4,44.224,161.824,26.5,181.687,8.7,201.641,3.6,220.014,3.657,232.972l-1.43.335c-3.1-21.5,8.679-42.463,20.147-55.32,11.305-12.674,31.128-27.1,53-26.646Z" transform="translate(0.024 2.108)" fill="#010101"/>
    <path id="Path_357403" data-name="Path 357403" d="M89.693,182.391l-.385,1.338c-12.41-.558-30.286,3.549-49.916,19.285-19.721,15.807-27.356,32.142-29.343,44.238l-1.389.091c.477-20.522,14.743-38.235,27.447-48.415C48.639,188.891,69.384,178.538,89.693,182.391Z" transform="translate(0.121 2.529)" fill="#010101"/>
    <path id="Path_357404" data-name="Path 357404" d="M95.319,210l-.517,1.257c-11.985-1.785-29.718.406-50.342,13.7-20.715,13.353-29.749,28.431-32.882,39.959l-1.359-.051c2.525-19.853,18.129-35.6,31.472-44.2C54.853,212.187,76,204.228,95.309,210.007Z" transform="translate(0.142 2.898)" fill="#010101"/>
    <path id="Path_357405" data-name="Path 357405" d="M96.517,241.657l-.649.994c-9.977-3.508-25.551-4.563-45.424,3.427-19.964,8.03-30.2,19.457-34.788,28.826l-1.156-.264c5.445-16.608,21.424-27.518,34.281-32.689,12.684-5.1,32.131-8.426,47.736-.284Z" transform="translate(0.202 3.298)" fill="#010101"/>
    <path id="Path_357406" data-name="Path 357406" d="M216.8,315.924l-1.166.832c-9.734-8.345-26.859-16.365-52.816-16.061-26.078.3-42.656,8.73-51.954,17.3l-1.186-.811c13.435-16.365,36.278-21.688,53.079-21.891,16.557-.193,40,4.583,54.043,20.623Z" transform="translate(1.528 4.113)" fill="#010101"/>
    <path id="Path_357407" data-name="Path 357407" d="M356.1,295.29c16.8.193,39.645,5.516,53.079,21.891l-1.186.811c-9.3-8.568-25.876-16.983-51.954-17.3-25.957-.3-43.092,7.716-52.816,16.061l-1.166-.831c14.053-16.05,37.485-20.826,54.042-20.623Z" transform="translate(4.208 4.114)" fill="#010101"/>
    <path id="Path_357408" data-name="Path 357408" d="M343.249,356.849c-13.09-3.579-29.87-12.4-37.039-27.944l1.1-.385c5.526,8.6,16.77,18.565,37.1,24.121,20.238,5.536,35.264,2.758,44.572-1.785l.74.892C375.461,361.432,356.156,360.388,343.249,356.849Z" transform="translate(4.266 4.576)" fill="#010101"/>
    <path id="Path_357409" data-name="Path 357409" d="M136.384,361.78c-11.123-4.664-24.9-14.367-29.424-28.9l1-.223c3.873,8.213,12.644,18.291,29.921,25.531,17.2,7.209,30.763,6.489,39.493,3.559l.548.872c-13.678,6.885-30.57,3.741-41.541-.852Z" transform="translate(1.49 4.634)" fill="#010101"/>
    <path id="Path_357410" data-name="Path 357410" d="M252.461,463.584c-7.635-.142-18.007-2.636-24.061-10.119l.537-.365c4.2,3.924,11.711,7.807,23.574,8.03,11.8.223,19.62-3.366,24.071-7.138l.527.385c-6.438,7.25-17.115,9.349-24.638,9.206Z" transform="translate(3.182 6.312)" fill="#010101"/>
    <path id="Path_357411" data-name="Path 357411" d="M283.529,436.906c4.887-.9,11.833-.669,16.679,3.316l-.294.3c-3.194-1.957-8.5-3.458-16.091-2.048-7.564,1.4-12.076,4.715-14.428,7.7L269.01,446C272.173,440.536,278.713,437.8,283.529,436.906Z" transform="translate(3.747 6.08)" fill="#010101"/>
    <path id="Path_357412" data-name="Path 357412" d="M237.149,446.621l-.385.172c-2.352-2.981-6.864-6.3-14.428-7.7-7.594-1.409-12.9.091-16.091,2.048l-.294-.3c4.847-3.985,11.782-4.228,16.679-3.316,4.826.892,11.356,3.62,14.52,9.095Z" transform="translate(2.869 6.089)" fill="#010101"/>
    <path id="Path_357413" data-name="Path 357413" d="M245.507,470.06l.3.456c-3.3,3.6-6.56,10.018-6.763,19.9-.2,9.926,2.8,16.345,5.942,19.985l-.324.436c-6.063-5.313-7.807-14.073-7.676-20.471.132-6.307,2.241-15.168,8.517-20.319Z" transform="translate(3.301 6.548)" fill="#010101"/>
    <path id="Path_357414" data-name="Path 357414" d="M237.788,466.81l.335.5c-3.6,3.934-7.168,10.94-7.381,21.739-.223,10.839,3.052,17.845,6.489,21.83l-.355.477c-6.621-5.8-8.527-15.371-8.385-22.357.142-6.885,2.444-16.568,9.3-22.185Z" transform="translate(3.183 6.503)" fill="#010101"/>
    <path id="Path_357415" data-name="Path 357415" d="M227.9,466.04l.335.5c-3.6,3.934-7.168,10.94-7.381,21.739-.223,10.839,3.052,17.845,6.489,21.83l-.355.477c-6.621-5.8-8.527-15.371-8.385-22.357C218.742,481.34,221.044,471.657,227.9,466.04Z" transform="translate(3.045 6.492)" fill="#010101"/>
    <path id="Path_357416" data-name="Path 357416" d="M217.835,467.45l.324.487c-3.539,3.863-7.037,10.748-7.25,21.343-.223,10.646,3,17.531,6.378,21.434l-.345.477c-6.509-5.7-8.375-15.1-8.233-21.952.142-6.763,2.4-16.263,9.136-21.789Z" transform="translate(2.907 6.512)" fill="#010101"/>
    <path id="Path_357417" data-name="Path 357417" d="M206.415,470.25l.294.446c-3.245,3.539-6.449,9.855-6.651,19.579-.2,9.764,2.748,16.081,5.84,19.66l-.314.436c-5.962-5.232-7.686-13.85-7.554-20.137.132-6.205,2.2-14.915,8.375-19.985Z" transform="translate(2.759 6.551)" fill="#010101"/>
    <path id="Path_357418" data-name="Path 357418" d="M196.993,471.27l.294.436c-3.184,3.478-6.337,9.683-6.53,19.224-.193,9.592,2.7,15.787,5.739,19.305l-.314.426c-5.861-5.13-7.544-13.6-7.412-19.772C188.892,484.8,190.93,476.238,196.993,471.27Z" transform="translate(2.63 6.565)" fill="#010101"/>
    <path id="Path_357419" data-name="Path 357419" d="M187.261,472.14l.284.426c-3.123,3.417-6.215,9.5-6.408,18.869-.193,9.409,2.646,15.493,5.637,18.95l-.3.416c-5.749-5.039-7.4-13.343-7.28-19.407.122-5.982,2.119-14.378,8.071-19.265Z" transform="translate(2.496 6.577)" fill="#010101"/>
    <path id="Path_357420" data-name="Path 357420" d="M175.689,475.65l.253.385c-2.778,3.032-5.526,8.436-5.688,16.75-.172,8.355,2.352,13.759,5,16.821l-.274.375c-5.1-4.471-6.57-11.843-6.459-17.227s1.886-12.765,7.169-17.095Z" transform="translate(2.347 6.626)" fill="#010101"/>
    <path id="Path_357421" data-name="Path 357421" d="M165.276,479.18l.274.416c-2.991,3.265-5.952,9.095-6.134,18.068-.182,9.014,2.535,14.834,5.394,18.139l-.294.4c-5.506-4.826-7.087-12.775-6.966-18.585s2.028-13.769,7.726-18.443Z" transform="translate(2.195 6.675)" fill="#010101"/>
    <path id="Path_357422" data-name="Path 357422" d="M153.9,483.95l.314.416c-2.981,3.6-5.79,9.906-5.506,19.366.284,9.511,3.468,15.493,6.651,18.829l-.284.436c-6.063-4.786-8.152-13.08-8.334-19.2C146.558,497.76,148.139,489.182,153.9,483.95Z" transform="translate(2.044 6.742)" fill="#010101"/>
    <path id="Path_357423" data-name="Path 357423" d="M143.937,488.42l.365.426c-2.9,4.086-5.425,11.032-4.39,21.13,1.034,10.139,4.9,16.294,8.568,19.619l-.274.487c-6.844-4.654-9.724-13.353-10.393-19.893-.659-6.439.375-15.726,6.124-21.769Z" transform="translate(1.917 6.804)" fill="#010101"/>
    <path id="Path_357424" data-name="Path 357424" d="M268.851,490.369c.132,6.4-1.612,15.158-7.675,20.471l-.324-.436c3.143-3.64,6.144-10.058,5.942-19.985-.2-9.886-3.468-16.3-6.763-19.9l.3-.456c6.276,5.151,8.385,14.013,8.517,20.319Z" transform="translate(3.622 6.548)" fill="#010101"/>
    <path id="Path_357425" data-name="Path 357425" d="M277.362,489c.142,6.986-1.764,16.547-8.385,22.357l-.355-.477c3.437-3.985,6.712-10.991,6.489-21.83s-3.782-17.8-7.381-21.739l.335-.5C274.919,472.447,277.22,482.12,277.362,489Z" transform="translate(3.73 6.503)" fill="#010101"/>
    <path id="Path_357426" data-name="Path 357426" d="M287.252,488.235c.142,6.986-1.764,16.547-8.385,22.357l-.355-.477c3.437-3.985,6.712-10.991,6.489-21.83-.223-10.8-3.782-17.8-7.381-21.739l.335-.5C284.809,471.677,287.11,481.35,287.252,488.235Z" transform="translate(3.867 6.492)" fill="#010101"/>
    <path id="Path_357427" data-name="Path 357427" d="M257.81,548.092c-15.3.142-36.218-4.258-48.77-18.91l1.065-.76c8.639,7.625,23.9,14.976,47.665,14.753,23.655-.223,39.1-7.858,47.807-15.645l1.075.74c-12.492,14.884-33.744,19.69-48.831,19.832Z" transform="translate(2.912 7.349)" fill="#010101"/>
    <path id="Path_357428" data-name="Path 357428" d="M370.339,539.622c-6.966,9.49-19.326,20.329-34.129,21.3l.02-1c8.679-1.8,20.238-7.817,31.057-22.54s10.981-27.285,11.163-37.759l2.667-.142c-.487,23-3.9,30.783-10.768,40.141Z" transform="translate(4.684 6.958)" fill="#010101"/>
    <path id="Path_357429" data-name="Path 357429" d="M124.26,500.056l2.15-.426c.183,10.474.4,23.087,11.163,37.759,10.819,14.732,22.388,20.745,31.057,22.54l.02,1c-14.814-.973-27.163-11.822-34.129-21.3-6.874-9.359-9.774-16.578-10.261-39.564Z" transform="translate(1.731 6.96)" fill="#010101"/>
    <path id="Path_357430" data-name="Path 357430" d="M297.14,489.239c.142,6.854-1.734,16.253-8.233,21.952l-.345-.477c3.376-3.9,6.591-10.788,6.378-21.434-.223-10.6-3.721-17.49-7.25-21.343l.324-.487c6.733,5.526,8.994,15.026,9.136,21.789Z" transform="translate(4.008 6.512)" fill="#010101"/>
    <path id="Path_357431" data-name="Path 357431" d="M307.8,490.235c.132,6.286-1.582,14.9-7.554,20.137l-.314-.436c3.092-3.589,6.043-9.9,5.84-19.66-.2-9.724-3.407-16.04-6.651-19.579l.294-.446c6.175,5.07,8.253,13.779,8.375,19.985Z" transform="translate(4.167 6.551)" fill="#010101"/>
    <path id="Path_357432" data-name="Path 357432" d="M317.067,490.9c.132,6.175-1.561,14.641-7.412,19.772l-.314-.426c3.042-3.518,5.942-9.713,5.739-19.305-.193-9.551-3.346-15.746-6.53-19.224l.294-.436C314.907,476.258,316.945,484.816,317.067,490.9Z" transform="translate(4.298 6.565)" fill="#010101"/>
    <path id="Path_357433" data-name="Path 357433" d="M326.645,491.4c.122,6.063-1.531,14.367-7.28,19.407l-.3-.416c2.981-3.457,5.83-9.541,5.637-18.95-.193-9.369-3.285-15.463-6.408-18.869l.284-.426c5.952,4.887,7.949,13.283,8.071,19.265Z" transform="translate(4.434 6.577)" fill="#010101"/>
    <path id="Path_357434" data-name="Path 357434" d="M337.3,492.755c.111,5.384-1.359,12.755-6.459,17.227l-.274-.375c2.646-3.072,5.171-8.466,5-16.821-.172-8.314-2.92-13.718-5.688-16.75l.254-.385c5.283,4.34,7.057,11.792,7.169,17.095Z" transform="translate(4.595 6.626)" fill="#010101"/>
    <path id="Path_357435" data-name="Path 357435" d="M348.28,497.623c.122,5.81-1.46,13.759-6.966,18.585l-.294-.4c2.859-3.305,5.577-9.136,5.394-18.139-.182-8.973-3.143-14.8-6.134-18.068l.274-.416c5.7,4.674,7.615,12.715,7.726,18.443Z" transform="translate(4.74 6.675)" fill="#010101"/>
    <path id="Path_357436" data-name="Path 357436" d="M359.1,503.793c-.183,6.124-2.281,14.418-8.335,19.2l-.284-.436c3.184-3.336,6.367-9.318,6.651-18.829.284-9.46-2.525-15.767-5.506-19.366l.314-.416c5.759,5.232,7.341,13.81,7.158,19.843Z" transform="translate(4.882 6.742)" fill="#010101"/>
    <path id="Path_357437" data-name="Path 357437" d="M368.057,510.189c-.669,6.53-3.549,15.239-10.393,19.893l-.274-.487c3.66-3.316,7.523-9.48,8.568-19.619,1.034-10.1-1.48-17.044-4.39-21.13l.365-.426c5.749,6.033,6.783,15.331,6.124,21.769Z" transform="translate(4.979 6.804)" fill="#010101"/>
    <path id="Path_357438" data-name="Path 357438" d="M89.323,262.43l-.629.821c-8.487-3.7-22.023-5.617-39.9.091-17.957,5.739-27.63,15.067-32.233,22.955l-.994-.3c5.82-14.154,20.471-22.672,32.04-26.362,11.407-3.64,28.6-5.3,41.713,2.809Z" transform="translate(0.217 3.575)" fill="#010101"/>
    <path id="Path_357439" data-name="Path 357439" d="M85.823,283.117l-.659.71c-7.564-4.238-19.985-7.27-37.15-3.61C30.767,283.9,20.9,291.685,15.872,298.6l-.892-.375c6.722-12.644,21.161-19.214,32.273-21.587,10.95-2.332,27.123-2.292,38.58,6.469Z" transform="translate(0.209 3.836)" fill="#010101"/>
    <path id="Path_357440" data-name="Path 357440" d="M400.41,81.511l1.926-.041c4.451,16.6,17.328,38.448,46.276,57.774,29.09,19.407,53.809,22.651,70.59,20.218l.7,1.795c-27.265,7.939-56.567-3.478-75.3-15.98-18.474-12.329-40.79-35.366-44.177-63.756Z" transform="translate(5.578 1.135)" fill="#010101"/>
    <path id="Path_357441" data-name="Path 357441" d="M431.45,87.7l1.3-.03c2.991,11.174,11.66,25.876,31.148,38.884,19.579,13.059,36.218,15.25,47.5,13.607l.466,1.207c-18.352,5.343-38.073-2.342-50.686-10.758-12.431-8.294-27.447-23.8-29.728-42.91Z" transform="translate(6.01 1.221)" fill="#010101"/>
    <path id="Path_357442" data-name="Path 357442" d="M448.242,267.966l-.8-1.014c7.148-9.095,13.708-24.851,12.431-48.243-1.288-23.5-9.521-38.124-17.612-46.174l.679-1.1c15.28,11.478,20.968,31.868,21.8,47.006.821,14.925-2.575,36.238-16.5,49.531Z" transform="translate(6.161 2.388)" fill="#010101"/>
    <path id="Path_357443" data-name="Path 357443" d="M401.5,175.846l-1.207.821c-9.673-8.71-26.869-17.277-53.231-17.612-26.484-.335-43.528,7.807-53.181,16.274l-1.186-.852c14.043-16.294,37.373-21.13,54.428-20.917,16.821.213,40.5,5.637,54.367,22.276Z" transform="translate(4.077 2.139)" fill="#010101"/>
    <path id="Path_357444" data-name="Path 357444" d="M406.965,209.266l-1.207.821c-9.673-8.71-26.869-17.277-53.231-17.612-26.484-.335-43.528,7.807-53.181,16.274l-1.186-.852c14.043-16.294,37.373-21.13,54.428-20.917,16.821.213,40.5,5.637,54.367,22.276Z" transform="translate(4.153 2.605)" fill="#010101"/>
    <path id="Path_357445" data-name="Path 357445" d="M410.974,244.936l-1.166.791c-9.348-8.416-25.946-16.689-51.416-17-25.581-.324-42.038,7.544-51.356,15.716l-1.146-.821c13.566-15.736,36.1-20.41,52.572-20.2C374.705,223.623,397.57,228.865,410.974,244.936Z" transform="translate(4.261 3.112)" fill="#010101"/>
    <path id="Path_357446" data-name="Path 357446" d="M432.473,304.376l-1.632,1.115c-13.161-11.843-36.532-23.493-72.384-23.949-36.015-.446-59.193,10.616-72.314,22.134l-1.612-1.156c19.1-22.154,50.818-28.735,74.017-28.441C381.421,274.364,413.613,281.745,432.473,304.376Z" transform="translate(3.964 3.818)" fill="#010101"/>
    <path id="Path_357447" data-name="Path 357447" d="M428.391,300l-.71.983c7.047,8.03,13.81,22.205,13.536,44.238-.274,21.678-6.753,34.707-13.911,42.808l-1.217,1c-9.318,7.331-25.358,14.793-51.254,15.544-19.052.558-33.216-2.717-43.234-7.168l-1.349-.588a34.894,34.894,0,0,1-5.323-2.89c-.943-.578-1.845-1.156-2.687-1.744l-.071.041c-9.43-6.205-19.63-16.76-28.086-33.886-11.336-22.976-11.538-42.6-8.264-54.813l-1.207.274c-8.294,19.346-2.545,42.24,4.684,56.892,5.719,11.589,16.882,23.412,29.546,32.872a70.429,70.429,0,0,0,18.93,9.511c12.573,3.853,26.119,6.327,37.252,6,16.243-.466,36.684-4.309,52.015-18.028l1.42-1.369c13.84-11.538,17.156-30.418,17.328-44.4.183-14.185-3.843-33.591-17.4-45.272Z" transform="translate(3.908 4.179)" fill="#010101"/>
    <path id="Path_357448" data-name="Path 357448" d="M97.109,298.47,98.569,301c-7.047,8.03-13.81,22.205-13.536,44.238.274,21.678,6.753,34.707,13.911,42.808l1.217,1c9.318,7.331,25.358,14.793,51.254,15.544,19.052.558,33.216-2.717,43.234-7.169l1.349-.588a34.894,34.894,0,0,0,5.323-2.89c.943-.578,1.845-1.156,2.687-1.744l.071.041c9.43-6.205,19.63-16.76,28.086-33.886,11.336-22.976,11.538-42.6,8.263-54.813l1.207.274c8.294,19.346,2.545,42.24-4.684,56.892-5.719,11.589-16.882,23.412-29.546,32.872a70.427,70.427,0,0,1-18.93,9.511c-12.573,3.853-26.119,6.327-37.252,6-16.243-.466-36.684-4.309-52.015-18.028l-1.42-1.369c-13.84-11.538-17.156-30.418-17.328-44.4-.183-14.185,3.022-33.024,16.639-46.823Z" transform="translate(1.121 4.158)" fill="#010101"/>
    <path id="Path_357449" data-name="Path 357449" d="M220.62,211.859l.831-.588c6.9,5.932,19.062,11.63,37.485,11.427,18.514-.2,30.286-6.175,36.887-12.248l.842.578c-9.541,11.61-25.764,15.381-37.688,15.513-11.751.132-28.39-3.275-38.357-14.672Z" transform="translate(3.073 2.932)" fill="#010101"/>
    <path id="Path_357450" data-name="Path 357450" d="M525.216,235.485l-1.288-.162c-1.338-11.488-7.777-27.3-25.166-42.991-17.47-15.767-33.612-20.35-45.029-20.36l-.294-1.257c18.93-2.616,37.333,7.848,48.577,18.007,11.092,10.018,23.7,27.538,23.189,46.773Z" transform="translate(6.317 2.372)" fill="#010101"/>
    <path id="Path_357451" data-name="Path 357451" d="M515.07,263.616l-1.2-.487c1.7-11.437-.375-28.38-13.07-48.07-12.745-19.782-27.133-28.42-38.144-31.412l.051-1.288c18.961,2.413,33.987,17.318,42.2,30.063,8.091,12.563,15.686,32.77,10.17,51.2Z" transform="translate(6.445 2.54)" fill="#010101"/>
    <path id="Path_357452" data-name="Path 357452" d="M498.851,289.943l-1.014-.73c4.177-10.393,6.023-26.818-1.49-48.212-7.554-21.5-19.163-32.872-28.856-38.164l.335-1.207c17.308,6.54,28.106,23.959,32.973,37.809,4.8,13.658,7.4,34.393-1.947,50.514Z" transform="translate(6.512 2.809)" fill="#010101"/>
    <path id="Path_357453" data-name="Path 357453" d="M479.163,291.019l-.659-.73c4.907-7.27,9.024-19.549,6.783-37.171-2.251-17.7-9.277-28.329-15.827-33.977l.456-.872c12.187,7.858,17.592,22.976,19.042,34.382C490.388,263.9,488.978,280.211,479.163,291.019Z" transform="translate(6.54 3.041)" fill="#010101"/>
    <path id="Path_357454" data-name="Path 357454" d="M458.074,290.493l-.274-.71c5.587-3.934,11.985-11.731,15.239-25.176,3.265-13.516,1.1-23.189-2.109-29.12l.578-.507c6.692,9.095,6.439,21.6,4.33,30.3C473.759,273.854,468.213,285.342,458.074,290.493Z" transform="translate(6.377 3.273)" fill="#010101"/>
    <path id="Path_357455" data-name="Path 357455" d="M237.17,283.6c4.076-5.942,6.286-12.522,6.286-17.693a12.565,12.565,0,0,0-.619-4.076l-4.857-2.515v-.781l9.724-5.465h1.1c1.1.791,2.342,2.667,2.494,6.428.142,8.456-4.563,17.379-13.658,25.044l-.466-.943Z" transform="translate(3.304 3.525)" fill="#010101"/>
    <path id="Path_357456" data-name="Path 357456" d="M180.02,305.95c5.668,12.978-7.169,26.372-20.37,21.282a16.051,16.051,0,0,1-9.085-20.644c5.171-13.181,23.716-13.587,29.455-.639Zm-1.643.72a14.065,14.065,0,0,0-18.646-7.25C148.578,304.541,149,320.7,160.512,325c11.092,4.269,22.509-7.31,17.865-18.332h0Z" transform="translate(2.082 4.13)" fill="#010101"/>
    <path id="Path_357457" data-name="Path 357457" d="M371.33,305.95c5.668,12.978-7.168,26.372-20.37,21.282a16.051,16.051,0,0,1-9.085-20.644c5.171-13.181,23.716-13.587,29.455-.639Zm-1.643.72a14.065,14.065,0,0,0-18.646-7.25c-11.153,5.12-10.727,21.282.781,25.581,11.092,4.269,22.509-7.31,17.865-18.332h0Z" transform="translate(4.747 4.13)" fill="#010101"/>
    <path id="Path_357458" data-name="Path 357458" d="M186.607,437.092c-2.565-1.044-5.13-1.9-7.7-2.748-7.868,6.935-22.286,21.384-31.858,30.976-15.077,15.108-21.161,22.9-20.573,38.661L124.23,502.2c-.1-3.7.416-10.271,4.613-22.043,3.569-10.007,8.71-16.9,11.65-19.853l37.171-37.252c2.281,2.271,7.128,9.582,9.125,13.465l-.193.568ZM200.143,406.6a20.637,20.637,0,0,1-.183,7.594l-.375.76a21.615,21.615,0,0,1-7.4.578l-.284-.852a18.188,18.188,0,0,1,.091-7.5l.477-.852c2-.669,5.881-.953,7.209-.385l.477.669Z" transform="translate(1.73 5.651)" fill="#010101"/>
    <path id="Path_357459" data-name="Path 357459" d="M117.057,42.11C77.463,67.4,66.675,123.458,84.337,159.726c5.242,10.352,10.656,20.644,15.615,31.178,3.964,12.015,4.248,25.166,3.305,37.708-2.677,28.562-17.3,55.4-38.661,74.747-1.308,1.146-1.724,1.653-.162.75,40.2-21.313,53.12-73.885,41.946-107.456-3.305-10.433-8.142-17.8-13.181-26.95-5.354-9.663-7.686-20.715-9.277-31.554-4.806-35.021,9.4-70.509,33.156-96.039Z" transform="translate(0.884 0.587)" fill="#010101"/>
    <path id="Path_357460" data-name="Path 357460" d="M168.493,302.564s1.693-2.362-1.916-3.174c0,0-3.4.588-10.839,9.957,0,0-1.328,2.728.152,4.573,0,0,4.938,4.867,7.746,6.418.588.365,2.88,1.176,5.9-1.47.588-.152,5.82-5.09,6.935-7.371,0,0,.811-1.774-2.21-3.539a4.871,4.871,0,0,1-2.951,3.9,4.357,4.357,0,0,1-5.526-2.8s-1.774-2.8,2.727-6.489Z" transform="translate(2.162 4.171)" fill="#010101"/>
    <path id="Path_357461" data-name="Path 357461" d="M359.633,302.564s1.693-2.362-1.916-3.174c0,0-3.4.588-10.839,9.957,0,0-1.328,2.728.152,4.573,0,0,4.938,4.867,7.746,6.418.588.365,2.88,1.176,5.9-1.47.588-.152,5.82-5.09,6.935-7.371,0,0,.811-1.774-2.21-3.539a4.871,4.871,0,0,1-2.951,3.9,4.357,4.357,0,0,1-5.526-2.8s-1.774-2.8,2.727-6.489Z" transform="translate(4.825 4.171)" fill="#010101"/>
    <path id="Path_357462" data-name="Path 357462" d="M246.97,684.92l2.291,5.536,4.806-1.886,3.964,1.774,2.292-5.313Z" transform="translate(3.44 9.541)" fill="#010101"/>
  </g>
</svg>
